<?xml version="1.0" encoding="utf-8"?>
<!-- Generator: Adobe Illustrator 25.0.0, SVG Export Plug-In . SVG Version: 6.00 Build 0)  -->
<svg version="1.1" xmlns="http://www.w3.org/2000/svg" xmlns:xlink="http://www.w3.org/1999/xlink" x="0px" y="0px"
	 viewBox="0 0 200 200" style="enable-background:new 0 0 200 200;" xml:space="preserve">
<style type="text/css">
	.st0{fill:none;stroke:#22B0E6;stroke-width:2;stroke-miterlimit:10;}
	.st1{fill:#F18D1F;}
	.st2{font-family:'SamsungSharpSans';}
	.st3{font-size:10.8586px;}
	.st4{fill:#22B0E6;}
	.st5{font-family:'SamsungSharpSans-Bold';}
	.st6{font-size:16.2878px;}
</style>
<g id="Layer_3">
	<path class="st0" d="M101.2,82.37c0-5.54,4.49-10.02,10.02-10.02h36.63c5.54,0,10.02,4.49,10.02,10.02v16.72
		c0,5.54-4.49,10.02-10.02,10.02h-36.63c-5.54,0-10.02-4.49-10.02-10.02"/>
	<path class="st1" d="M147.33,115.66h-35.57c-0.68,0-1.24-0.55-1.24-1.24v-0.88c0-0.68,0.55-1.24,1.24-1.24h35.57
		c0.68,0,1.24,0.55,1.24,1.24v0.88C148.57,115.11,148.01,115.66,147.33,115.66z"/>
</g>
<g id="Layer_1">
	<text transform="matrix(1 0 0 1 56.1813 107.9866)" class="st1 st2 st3">Online</text>
</g>
<g id="Layer_2">
	<text transform="matrix(1 0 0 1 55.4972 96.9695)" class="st4 st5 st6">MARKETING</text>
</g>
</svg>
