<?xml version="1.0" encoding="utf-8"?>
<!-- Generator: Adobe Illustrator 25.0.0, SVG Export Plug-In . SVG Version: 6.00 Build 0)  -->
<svg version="1.1" id="Layer_1" xmlns="http://www.w3.org/2000/svg" xmlns:xlink="http://www.w3.org/1999/xlink" x="0px" y="0px"
	 viewBox="0 0 595.3 91.3" style="enable-background:new 0 0 595.3 91.3;" xml:space="preserve">
<style type="text/css">
	.st0{fill:#231F20;}
</style>
<g id="Layer_x0020_1">
	<path class="st0" d="M39.5,63.9c0.8,2.1,0.6,4.7,0.2,6.3C39,73.1,37.1,76,31.4,76c-5.3,0-8.6-3.1-8.6-7.7V60H0v6.5
		C0,85.5,15,91.3,31,91.3c15.4,0,28-5.2,30.1-19.4c1-7.3,0.3-12.2-0.1-13.9c-3.6-17.8-35.9-23.1-38.3-33.1c-0.3-1.5-0.4-3-0.1-4.5
		c0.6-2.7,2.5-5.7,7.8-5.7c5,0,7.9,3.1,7.9,7.7v5.3h21.2v-6C59.5,3,42.8,0.1,30.8,0.1C15.7,0.1,3.3,5.2,1,19
		c-0.6,3.8-0.7,7.2,0.2,11.5C4.9,47.9,35.2,52.9,39.5,63.9 M39.6,63.9L39.6,63.9L39.6,63.9z"/>
	<path class="st0" d="M91.1,2.9L75.3,87.9h23l11.6-77.2h0.5l11.3,77.2h22.9L129,2.8L91.1,2.9L91.1,2.9z M219.6,2.9l-10.5,65.1h-0.5
		L198.2,2.9h-34.7l-1.9,85.1h21.3l0.5-76.5h0.5l14.2,76.5h21.6l14.2-76.5h0.5l0.5,76.5h21.3l-1.9-85.1L219.6,2.9L219.6,2.9z"/>
	<path class="st0" d="M316.1,63.8c0.8,2.1,0.6,4.7,0.2,6.3c-0.7,2.8-2.6,5.7-8.3,5.7c-5.3,0-8.6-3.1-8.6-7.7v-8.2h-22.8v6.5
		c0,19,14.9,24.7,30.9,24.7c15.4,0,28-5.2,30.1-19.4c1-7.3,0.3-12.2-0.1-13.9c-3.6-17.8-35.9-23.1-38.3-33.1c-0.3-1.5-0.4-3-0.1-4.5
		c0.6-2.7,2.5-5.7,7.8-5.7c5,0,7.9,3.1,7.9,7.7v5.3H336v-6C336,2.9,319.4,0,307.4,0c-15.1,0-27.5,5-29.8,18.9
		c-0.6,3.8-0.7,7.2,0.2,11.5C281.5,47.7,311.8,52.8,316.1,63.8 M316.1,63.8L316.1,63.8L316.1,63.8z"/>
	<path class="st0" d="M387.5,75.2c5.9,0,7.7-4.1,8.2-6.2c0.2-0.9,0.2-2.2,0.2-3.3V2.9h21.5v61c0,1.9-0.1,3.7-0.2,5.6
		c-1.5,15.9-14,21-29.7,21s-28.2-5.2-29.7-21c-0.1-0.9-0.2-4-0.2-5.6v-61h21.5v62.9c0,1.1,0,2.4,0.2,3.3
		C379.8,71.1,381.6,75.2,387.5,75.2 M491.6,2.9l1.2,66.8h-0.5L472.7,2.9h-31.5V87h20.9l-1.2-69.1h0.5l21,69.1h30.3V2.9H491.6
		L491.6,2.9z M565,74.3c6.2,0,8.3-3.9,8.7-6.2c0.2-0.9,0.2-2.1,0.2-3.2V52.6h-8.7V40.2h30.1V63c0,1.6,0,2.7-0.3,5.6
		c-1.4,15.5-14.9,21-29.9,21c-15.1,0-28.5-5.5-29.9-21c-0.2-2.8-0.3-4-0.3-5.6V27.2c0-1.5,0.2-4.2,0.4-5.6c1.9-15.9,14.8-21,29.9-21
		c15.1,0,28.3,5.1,29.9,21c0.3,2.7,0.2,5.6,0.2,5.6V30h-21.5v-4.8c0,0,0-2-0.3-3.2c-0.4-1.9-2-6.2-8.5-6.2c-6.2,0-8,4.1-8.5,6.2
		c-0.3,1.1-0.4,2.6-0.4,4v38.9c0,1.1,0,2.3,0.2,3.2C556.7,70.4,558.8,74.3,565,74.3 M565,74.3L565,74.3L565,74.3z"/>
</g>
</svg>
